<svg xmlns="http://www.w3.org/2000/svg" viewBox="0 0 1000 650" width="100%" height="100%" style="background-color: #F5F5F5; font-family: 'Helvetica Neue', Helvetica, Arial, sans-serif;">
  <rect x="20" y="20" width="960" height="610" rx="8" fill="#FFFFFF" stroke="#CCCCCC" stroke-width="2"/>
  
  <rect x="20" y="20" width="960" height="45" rx="8" fill="#EAEAEA"/>
  <circle cx="40" cy="42" r="6" fill="#FF5F56"/>
  <circle cx="60" cy="42" r="6" fill="#FFBD2E"/>
  <circle cx="80" cy="42" r="6" fill="#27C93F"/>
  <rect x="120" y="30" width="760" height="24" rx="4" fill="#FFFFFF"/>
  
  <text x="50" y="102" font-size="18" font-weight="bold" fill="#111111">LOGO</text>
  <text x="400" y="100" font-size="14" font-weight="500" fill="#666666">Shop</text>
  <text x="460" y="100" font-size="14" font-weight="500" fill="#666666">Collections</text>
  <text x="560" y="100" font-size="14" font-weight="500" fill="#666666">About</text>
  
  <rect x="740" y="82" width="140" height="28" rx="4" fill="#F0F0F0" stroke="#DDDDDD"/>
  <text x="750" y="100" font-size="12" fill="#999999">Search...</text>
  <rect x="900" y="82" width="70" height="28" rx="4" fill="#E0E0E0"/>
  <text x="900" y="100" font-size="12" font-weight="bold" fill="#555555">🛒MiniCart</text>

  <line x1="20" y1="125" x2="980" y2="125" stroke="#E5E5E5" stroke-width="1"/>

  <text x="50" y="200" font-size="32" font-weight="900" fill="#111111">Premium Footwear,</text>
  <text x="50" y="240" font-size="32" font-weight="900" fill="#111111">Engineered for Comfort</text>
  <text x="50" y="280" font-size="14" fill="#666666">Eliminating distraction and friction to maximize your checkout experience.</text>
  
  <rect x="50" y="315" width="160" height="45" rx="4" fill="#111111"/>
  <text x="98" y="342" font-size="14" font-weight="bold" fill="#FFFFFF" text-anchor="middle">SHOP NOW</text>

  <rect x="520" y="160" width="410" height="220" fill="#E0E0E0" stroke="#B8B8B8" stroke-width="2"/>
  <line x1="520" y1="160" x2="930" y2="380" stroke="#B8B8B8" stroke-width="1.5"/>
  <line x1="520" y1="380" x2="930" y2="160" stroke="#B8B8B8" stroke-width="1.5"/>
  <rect x="655" y="255" width="140" height="30" rx="2" fill="#FFFFFF" opacity="0.9"/>
  <text x="725" y="274" font-size="12" font-weight="bold" fill="#555555" text-anchor="middle">HERO PLACEHOLDER</text>

  <line x1="20" y1="410" x2="980" y2="410" stroke="#E5E5E5" stroke-width="1"/>

  <text x="50" y="445" font-size="18" font-weight="bold" fill="#111111">Featured Collection</text>

  <rect x="50" y="465" width="260" height="145" rx="4" fill="#FFFFFF" stroke="#E0E0E0" stroke-width="1.5"/>
  <rect x="60" y="475" width="100" height="90" fill="#EAEAEA"/>
  <line x1="60" y1="475" x2="160" y2="565" stroke="#CCCCCC"/>
  <line x1="60" y1="565" x2="160" y2="475" stroke="#CCCCCC"/>
  <text x="175" y="495" font-size="13" font-weight="bold" fill="#111111">Velocity Runner</text>
  <text x="175" y="515" font-size="13" font-weight="bold" fill="#666666">$149.99</text>
  <rect x="175" y="535" width="125" height="30" rx="3" fill="#555555"/>
  <text x="237" y="554" font-size="11" font-weight="bold" fill="#FFFFFF" text-anchor="middle">Add to Cart</text>

  <rect x="370" y="465" width="260" height="145" rx="4" fill="#FFFFFF" stroke="#E0E0E0" stroke-width="1.5"/>
  <rect x="380" y="475" width="100" height="90" fill="#EAEAEA"/>
  <line x1="380" y1="475" x2="480" y2="565" stroke="#CCCCCC"/>
  <line x1="380" y1="565" x2="480" y2="475" stroke="#CCCCCC"/>
  <text x="495" y="495" font-size="13" font-weight="bold" fill="#111111">Aura Kick V2</text>
  <text x="495" y="515" font-size="13" font-weight="bold" fill="#666666">$129.99</text>
  <rect x="495" y="535" width="125" height="30" rx="3" fill="#555555"/>
  <text x="557" y="554" font-size="11" font-weight="bold" fill="#FFFFFF" text-anchor="middle">Add to Cart</text>

  <rect x="690" y="465" width="260" height="145" rx="4" fill="#FFFFFF" stroke="#E0E0E0" stroke-width="1.5"/>
  <rect x="700" y="475" width="100" height="90" fill="#EAEAEA"/>
  <line x1="700" y1="475" x2="800" y2="565" stroke="#CCCCCC"/>
  <line x1="700" y1="565" x2="800" y2="475" stroke="#CCCCCC"/>
  <text x="815" y="495" font-size="13" font-weight="bold" fill="#111111">Alpha Trainer</text>
  <text x="815" y="515" font-size="13" font-weight="bold" fill="#666666">$159.99</text>
  <rect x="815" y="535" width="125" height="30" rx="3" fill="#555555"/>
  <text x="877" y="554" font-size="11" font-weight="bold" fill="#FFFFFF" text-anchor="middle">Add to Cart</text>
</svg>
